# xmcd CD database file
#
# Track frame offsets:
#	150
#	14925
#	17177
#	30805
#	46210
#	55237
#	69715
#	87320
#	104917
#	120890
#	129650
#	140072
#	146837
#	160287
#	167382
#	181340
#	188622
#	199415
#	208345
#	220012
#	232442
#	243922
#	253262
#	266670
#	281780
#	292952
#	307155
#	317395
#	324145
#
# Disc length: 4498 seconds
#
# Revision: 0
# Processed by: cddbd v1.5.1PL0 Copyright (c) Steve Scherf et al.
# Submitted via: CDex 1.51
#
DISCID=c111901d
DTITLE=Sonoton Authentic Series - SAS 060 - Authentic India 3
DYEAR=1995
DGENRE=Contentum
TTITLE0=Thirupalli yelluchi
TTITLE1=Sunrise at sea
TTITLE2=Morning at temple
TTITLE3=Morning in the village
TTITLE4=Marathi
TTITLE5=Bharatha natyam
TTITLE6=Fisherman 1
TTITLE7=Fisherman 2
TTITLE8=Veena solo
TTITLE9=Kathakali
TTITLE10=Bangara dance
TTITLE11=Santoor solo
TTITLE12=Kummi
TTITLE13=North Indian wedding
TTITLE14=South Indian wedding
TTITLE15=Nalungu
TTITLE16=Kollatam
TTITLE17=Sitar solo
TTITLE18=Gujarathi
TTITLE19=Tribal song
TTITLE20=Sadugudu
TTITLE21=Mallari
TTITLE22=Kuravanji
TTITLE23=Nyandi melam
TTITLE24=Riding in a Bullock cart
TTITLE25=Classic lullaby
TTITLE26=Folk lullaby
TTITLE27=Funeral ceremony
TTITLE28=Rudhra thandavam
EXTD=YEAR: 1995
EXTT0=
EXTT1=
EXTT2=
EXTT3=
EXTT4=
EXTT5=
EXTT6=
EXTT7=
EXTT8=
EXTT9=
EXTT10=
EXTT11=
EXTT12=
EXTT13=
EXTT14=
EXTT15=
EXTT16=
EXTT17=
EXTT18=
EXTT19=
EXTT20=
EXTT21=
EXTT22=
EXTT23=
EXTT24=
EXTT25=
EXTT26=
EXTT27=
EXTT28=
PLAYORDER=
